# xmcd CD database file
#
# Track frame offsets:
#	150
#	23979
#	38221
#	61502
#	76154
#	90544
#	104816
#	119764
#	135576
#	158436
#	171156
#	184611
#	195176
#	222018
#	246745
#	262589
#	281687
#	303645
#
# Disc length: 4335 seconds
#
# Revision: 0
# Processed by: cddbd v1.5PL3 Copyright (c) Steve Scherf et al.
# Submitted via: CDex 1.50
#
DISCID=f010ed12
DTITLE=Jimi Hendrix - Get That Feeling(1-8)  - Something On Your Mind(9-18) - The Authentic PPX Studio Recordings Vol. 2 and 6
DYEAR=1900
DGENRE=Blues
TTITLE0=Get That Feeling
TTITLE1=How Would You Feel
TTITLE2=Hush Now
TTITLE3=No Business
TTITLE4=Simon Says
TTITLE5=Gotta Have A New Dress
TTITLE6=Strange Things
TTITLE7=Welcome Home
TTITLE8=Calfornia Night (live)
TTITLE9=Level (studio, instr.)
TTITLE10=I Feel Good (live)
TTITLE11=Left Along (live)
TTITLE12=Knock Yourself Out (studio, instr.)
TTITLE13=Something On Your Mind (live)
TTITLE14=I Should've Quit You (live)
TTITLE15=Hard Night (live, instr.)
TTITLE16=I'm A Man (live)
TTITLE17=Instrumental (studio, instr.)
EXTD=
EXTT0=
EXTT1=
EXTT2=
EXTT3=
EXTT4=
EXTT5=
EXTT6=
EXTT7=
EXTT8=
EXTT9=
EXTT10=
EXTT11=
EXTT12=
EXTT13=
EXTT14=
EXTT15=
EXTT16=
EXTT17=
PLAYORDER=
